<?xml version="1.0" encoding="utf-8"?>
<!-- Generator: Adobe Illustrator 27.0.0, SVG Export Plug-In . SVG Version: 6.00 Build 0)  -->
<svg version="1.1" id="图层_1" xmlns="http://www.w3.org/2000/svg" xmlns:xlink="http://www.w3.org/1999/xlink" x="0px" y="0px"
	 viewBox="0 0 42.5 42.5" style="enable-background:new 0 0 42.5 42.5;" xml:space="preserve">
<style type="text/css">
	.st0{fill:#1D1D1F;}
</style>
<path class="st0" d="M20.1,24.9c0,2.9-1.5,4.7-3.9,4.7s-3.9-1.8-3.9-4.7s1.5-4.7,3.9-4.7S20.1,22,20.1,24.9z M23.4,14.8l-1,0.1
	c-0.6,0-0.9,0.3-0.9,0.6c0,0.4,0.3,0.6,0.8,0.6c0.6,0,1.1-0.4,1.1-1V14.8z M38.3,21.3c0,9.5-7.5,17-17,17s-17-7.5-17-17
	s7.5-17,17-17S38.3,11.8,38.3,21.3z M25.2,14.6c0,1.4,0.8,2.2,2,2.2c1,0,1.7-0.6,1.8-1.4h-0.8c-0.1,0.5-0.5,0.7-1,0.7
	c-0.7,0-1.1-0.6-1.1-1.5s0.4-1.5,1.1-1.5c0.6,0,0.9,0.3,1,0.7H29c-0.1-0.8-0.8-1.4-1.8-1.4C26,12.4,25.2,13.2,25.2,14.6z M13.8,12.5
	v4.2h0.8v-2.6c0-0.5,0.4-1,0.9-1s0.8,0.3,0.8,0.8v2.8h0.8V14c0-0.5,0.4-0.9,0.9-0.9s0.8,0.3,0.8,0.9v2.7h0.8v-2.9
	c0-0.9-0.5-1.4-1.4-1.4c-0.6,0-1.1,0.3-1.3,0.8H17c-0.2-0.5-0.6-0.8-1.2-0.8c-0.6,0-1,0.3-1.2,0.8h-0.1v-0.7L13.8,12.5z M21.5,24.9
	c0-3.7-2.1-6-5.4-6s-5.4,2.3-5.4,6s2.1,6,5.4,6S21.5,28.6,21.5,24.9z M22.1,16.8c0.6,0,1-0.2,1.3-0.7h0.1v0.6h0.8v-2.9
	c0-0.9-0.6-1.4-1.7-1.4c-1,0-1.6,0.5-1.7,1.2h0.8c0.1-0.3,0.4-0.5,0.9-0.5c0.6,0,0.9,0.3,0.9,0.7v0.4l-1.1,0.1
	c-1,0.1-1.6,0.5-1.6,1.3C20.6,16.3,21.2,16.8,22.1,16.8z M31.2,27.4c0-1.7-1-2.6-3.4-3.1L26.6,24c-1.6-0.3-2.2-1-2.2-1.9
	c0-1.2,1.1-1.9,2.6-1.9s2.5,0.8,2.6,2.1H31c-0.1-2-1.7-3.4-4.1-3.4s-4.1,1.4-4.1,3.3c0,1.7,1,2.7,3.3,3.2l1.3,0.3
	c1.6,0.3,2.3,1,2.3,2c0,1.1-1.1,2-2.7,2c-1.7,0-2.8-0.8-3-2h-1.5c0.1,2,1.8,3.3,4.4,3.3C29.5,30.9,31.2,29.5,31.2,27.4z"/>
</svg>
