<?xml version="1.0" encoding="utf-8"?>
<!-- Generator: Adobe Illustrator 27.0.0, SVG Export Plug-In . SVG Version: 6.00 Build 0)  -->
<svg version="1.1" id="图层_1" xmlns="http://www.w3.org/2000/svg" xmlns:xlink="http://www.w3.org/1999/xlink" x="0px" y="0px"
	 viewBox="0 0 42.5 42.5" style="enable-background:new 0 0 42.5 42.5;" xml:space="preserve">
<style type="text/css">
	.st0{fill:#1C1C1C;}
</style>
<path class="st0" d="M28.7,29.8c-0.7,0-1.3-0.6-1.3-1.3c0-0.7,0.6-1.3,1.3-1.3c0.7,0,1.3,0.6,1.3,1.3C30.1,29.2,29.5,29.8,28.7,29.8
	 M13.8,29.8c-0.7,0-1.3-0.6-1.3-1.3c0-0.7,0.6-1.3,1.3-1.3s1.3,0.6,1.3,1.3C15.2,29.2,14.5,29.8,13.8,29.8 M29.2,21.6l2.7-4.7
	c0.2-0.3,0.1-0.6-0.2-0.8c-0.3-0.2-0.6-0.1-0.8,0.2L28.2,21c-2.1-1-4.4-1.5-6.9-1.5S16.5,20,14.4,21l-2.7-4.7
	c-0.2-0.3-0.5-0.4-0.8-0.2c-0.3,0.2-0.4,0.5-0.2,0.8l2.7,4.7c-4.6,2.5-7.8,7.2-8.3,12.7h32.4C37,28.8,33.8,24.2,29.2,21.6"/>
</svg>
