<?xml version="1.0" encoding="utf-8"?>
<!-- Generator: Adobe Illustrator 27.0.0, SVG Export Plug-In . SVG Version: 6.00 Build 0)  -->
<svg version="1.1" id="图层_1" xmlns="http://www.w3.org/2000/svg" xmlns:xlink="http://www.w3.org/1999/xlink" x="0px" y="0px"
	 viewBox="0 0 42.5 42.5" style="enable-background:new 0 0 42.5 42.5;" xml:space="preserve">
<style type="text/css">
	.st0{fill:#1D1D1F;}
</style>
<path class="st0" d="M22.1,21.7c0,2.9-1.5,4.7-3.9,4.7s-3.9-1.8-3.9-4.7s1.5-4.7,3.9-4.7S22.1,18.8,22.1,21.7z M37.3,14.1v14.4
	c0,1.1,0,2.9-0.6,4.5c-0.3,0.8-1,1.9-2,2.7c-0.6,0.5-1.3,0.9-2.3,1.2s-2.3,0.4-3.9,0.4H14.1c-1.6,0-2.8-0.1-3.9-0.4
	c-1-0.3-1.7-0.7-2.2-1.2c-1-0.8-1.7-1.9-2.1-2.7c-0.6-1.6-0.6-3.4-0.6-4.5V14.1c0-1.1,0-2.9,0.6-4.5c0.3-0.8,1-1.9,2.1-2.7
	C8.6,6.4,9.3,6,10.2,5.7c1-0.3,2.3-0.4,3.9-0.4h14.4c1.6,0,2.8,0.1,3.9,0.4c1,0.3,1.7,0.7,2.3,1.2c1,0.8,1.7,1.9,2,2.7
	C37.2,11.1,37.3,12.9,37.3,14.1z M11.6,27.5v-6.9h-1.4v6.9H11.6z M11.7,18.7c0-0.5-0.4-0.8-0.8-0.8c-0.4,0-0.8,0.4-0.8,0.8
	c0,0.5,0.4,0.8,0.8,0.8S11.7,19.1,11.7,18.7z M23.6,21.7c0-3.7-2.1-6-5.4-6s-5.4,2.3-5.4,6s2.1,6,5.4,6S23.6,25.4,23.6,21.7z
	 M32.9,24.2c0-1.6-1-2.6-3.4-3.1l-1.3-0.3c-1.6-0.3-2.2-1-2.2-1.9c0-1.2,1.1-1.9,2.6-1.9s2.5,0.8,2.6,2h1.5c-0.1-2-1.7-3.4-4.1-3.4
	s-4.1,1.4-4.1,3.3c0,1.6,1,2.7,3.3,3.2l1.3,0.3c1.6,0.3,2.3,1,2.3,2c0,1.2-1.1,2-2.7,2c-1.7,0-2.8-0.8-3-2h-1.5
	c0.1,2,1.8,3.3,4.4,3.3S32.9,26.4,32.9,24.2z"/>
</svg>
