<?xml version="1.0" encoding="UTF-8"?>
<svg id="Layer_1" data-name="Layer 1" xmlns="http://www.w3.org/2000/svg" viewBox="0 0 500 500">
  <defs>
    <style>
      .cls-1 {
        fill: #231f20;
      }
    </style>
  </defs>
  <path class="cls-1" d="M413.54,104.61c27.54,0,41.32,17.99,41.34,53.96V39.33h-73.98V121.29c7.49-11.12,18.37-16.68,32.64-16.68Z"/>
  <path class="cls-1" d="M416.44,293.18V162.99c0-16.19-5.32-24.3-15.96-24.3-13.06,0-19.58,9.92-19.58,29.74v124.75h-38.44V39.33h-28.28V232.98c0,41.1-19.34,61.65-58.02,61.65-7.74,0-13.9-.49-18.49-1.45v-36.26c3.63,.97,7.98,1.45,13.06,1.45,15.71,0,23.57-8.1,23.57-24.3V39.33H66.21V396c.4,.1,.81,.19,1.21,.29,10.4,2.45,20.22,4.77,40.41,4.77s30.01-2.32,40.41-4.77c10.89-2.57,22.14-5.23,44.31-5.23s33.43,2.66,44.31,5.23c10.4,2.45,20.22,4.77,40.41,4.77v17c-22.17,0-33.43-2.66-44.31-5.23-10.4-2.45-20.22-4.77-40.41-4.77s-30.01,2.32-40.41,4.77c-10.89,2.57-22.14,5.23-44.31,5.23-20.35,0-31.5-2.24-41.62-4.59v47.21H454.88v-167.49h-38.44Z"/>
</svg>