<?xml version="1.0" encoding="UTF-8"?>
<svg id="Layer_1" data-name="Layer 1" xmlns="http://www.w3.org/2000/svg" viewBox="0 0 128 128">
  <defs>
    <style>
      .cls-1 {
        fill: #231f20;
      }
    </style>
  </defs>
  <path class="cls-1" d="M102.74,39.62c3.11-4.62,7.63-6.93,13.56-6.93,2.15,0,4.09,.26,5.83,.79V5.87h-19.39V39.62Z"/>
  <path class="cls-1" d="M117.5,111.03V56.95c0-6.73-2.21-10.09-6.63-10.09-5.42,0-8.14,4.12-8.14,12.35v51.82h-15.97V5.87h-11.75V86.02c0,17.08-8.04,25.61-24.1,25.61-3.22,0-5.78-.2-7.68-.6v-15.07c1.51,.4,3.31,.6,5.42,.6,6.53,0,9.79-3.36,9.79-10.09V5.87H5.87V122.13H122.13v-11.1h-4.63Z"/>
</svg>